<?xml version="1.0" encoding="utf-8"?>
<!-- Generator: Adobe Illustrator 16.0.0, SVG Export Plug-In . SVG Version: 6.00 Build 0)  -->
<!DOCTYPE svg PUBLIC "-//W3C//DTD SVG 1.1//EN" "http://www.w3.org/Graphics/SVG/1.1/DTD/svg11.dtd">
<svg version="1.1" id="Capa_1" xmlns="http://www.w3.org/2000/svg" xmlns:xlink="http://www.w3.org/1999/xlink" x="0px" y="0px"
	 width="184.252px" height="66.414px" viewBox="0 0 184.252 66.414" enable-background="new 0 0 184.252 66.414"
	 xml:space="preserve">
<g>
	<g>
		<g>
			<g>
				<defs>
					<path id="SVGID_1_" d="M49.046,14.02l-1.761,2.183c0.215,4.429,0.833,9.726,0.625,14.694c-3.029,0.486-6.173,1.097-9.407,1.799
						l-5.146,8.142c4.599-1.405,9.171-2.655,13.713-3.743c-0.124,0.473-0.262,0.938-0.416,1.389c0,0-2.315,8.795-16.12,10.268
						c-6.039,0.645-11.198-0.035-15.056-2.115c-3.991-2.15-6.39-5.311-7.669-9.201c-0.51-1.559-0.865-3.543-0.787-5.166
						c0.026-0.586,0.072-1.17,0.136-1.748c1.645-15.29,15.04-27.322,30.646-27.322c3.867,0,7.568,0.715,10.979,2.017
						C53.803,8.016,52.362,9.91,49.046,14.02L49.046,14.02z M66.115,21.831c1.608,3.735,2.502,7.85,2.502,12.171
						c0,17.011-13.799,30.806-30.813,30.806c-2.282,0-4.507-0.25-6.647-0.724c-4.456-1.55-3.102-5.425,1.155-6.756
						c2.773-0.867,7.521-3.037,11.293-6.397c4.83-4.308,6.819-9.367,7.728-14.814c2.867-0.631,5.723-1.195,8.566-1.697l3.963-4.82
						c-3.65-0.097-7.643,0.168-11.901,0.713c0.227-3.496,0.276-7.093,0.558-10.707c0,0,0.649-3.078,5.444-3.313
						C62.257,16.08,64.46,18.835,66.115,21.831L66.115,21.831z"/>
				</defs>
				<clipPath id="SVGID_2_">
					<use xlink:href="#SVGID_1_"  overflow="visible"/>
				</clipPath>
				
					<polygon clip-path="url(#SVGID_2_)" fill="#007948" stroke="#211915" stroke-width="0.5669" stroke-miterlimit="2.6131" points="
					3.686,-3 71.727,-3 71.727,71.071 3.686,71.071 				"/>
			</g>
		</g>
	</g>
	<g>
		<g>
			<g>
				<defs>
					<path id="SVGID_3_" d="M49.046,14.02l-1.761,2.183c0.215,4.429,0.833,9.726,0.625,14.694c-3.029,0.486-6.173,1.097-9.407,1.799
						l-5.146,8.142c4.599-1.405,9.171-2.655,13.713-3.743c-0.124,0.473-0.262,0.938-0.416,1.389c0,0-2.315,8.795-16.12,10.268
						c-6.039,0.645-11.198-0.035-15.056-2.115c-3.991-2.15-6.39-5.311-7.669-9.201c-0.51-1.559-0.865-3.543-0.787-5.166
						c0.026-0.586,0.072-1.17,0.136-1.748c1.645-15.29,15.04-27.322,30.646-27.322c3.867,0,7.568,0.715,10.979,2.017
						C53.803,8.016,52.362,9.91,49.046,14.02L49.046,14.02z M66.115,21.831c1.608,3.735,2.502,7.85,2.502,12.171
						c0,17.011-13.799,30.806-30.813,30.806c-2.282,0-4.507-0.25-6.647-0.724c-4.456-1.55-3.102-5.425,1.155-6.756
						c2.773-0.867,7.521-3.037,11.293-6.397c4.83-4.308,6.819-9.367,7.728-14.814c2.867-0.631,5.723-1.195,8.566-1.697l3.963-4.82
						c-3.65-0.097-7.643,0.168-11.901,0.713c0.227-3.496,0.276-7.093,0.558-10.707c0,0,0.649-3.078,5.444-3.313
						C62.257,16.08,64.46,18.835,66.115,21.831L66.115,21.831z"/>
				</defs>
				<clipPath id="SVGID_4_">
					<use xlink:href="#SVGID_3_"  overflow="visible"/>
				</clipPath>
				<g clip-path="url(#SVGID_4_)">
					
						<radialGradient id="SVGID_5_" cx="633.7559" cy="-693.166" r="54.5249" gradientTransform="matrix(1 0 0 -1 -613.502 -652.9863)" gradientUnits="userSpaceOnUse">
						<stop  offset="0" style="stop-color:#90BA88"/>
						<stop  offset="0.66" style="stop-color:#007948"/>
						<stop  offset="1" style="stop-color:#007948"/>
					</radialGradient>
					<path fill="url(#SVGID_5_)" d="M11.997,27.645c3.433-14.12,17.659-22.8,31.779-19.366c14.119,3.416,22.78,17.659,19.365,31.761
						c-3.433,14.104-17.658,22.781-31.778,19.35C17.244,55.974,8.581,41.765,11.997,27.645z"/>
				</g>
			</g>
		</g>
	</g>
</g>
<path fill="#211915" d="M169.638,49.709v-4.631c0.034,0,0.086,0,0.141,0c2.431,0,3.646-1.146,3.646-3.505v-2.2h-2.023
	c-0.65,0-1.248,0.021-1.762,0.069v-4.084c0.545-0.035,1.146-0.053,1.762-0.053h1.988v-0.301c0-1.604-0.402-2.711-1.195-3.309
	c-0.601-0.441-1.443-0.723-2.555-0.828v-4.84c1.146,0.019,2.254,0.177,3.326,0.476c1.163,0.334,2.188,0.88,3.064,1.672
	c0.896,0.792,1.602,1.849,2.146,3.168c0.526,1.304,0.813,2.958,0.813,4.931v5.267c0,1.213-0.213,2.321-0.637,3.31
	c-0.422,1.004-1.021,1.864-1.795,2.588c-0.758,0.725-1.674,1.285-2.729,1.672c-1.06,0.406-2.222,0.602-3.505,0.602L169.638,49.709
	L169.638,49.709z M169.638,26.028v4.842c-0.371-0.035-0.758-0.053-1.182-0.053c-1.004,0-1.92,0.07-2.729,0.248
	c-0.811,0.176-1.496,0.387-2.097,0.649c-0.599,0.282-1.091,0.563-1.513,0.882c-0.405,0.299-0.705,0.58-0.898,0.844h-0.211v-1.83
	c0-0.617,0.143-1.25,0.439-1.92c0.299-0.669,0.773-1.269,1.441-1.832c0.649-0.545,1.518-0.985,2.59-1.338
	c1.057-0.334,2.342-0.51,3.838-0.51C169.426,26.012,169.532,26.028,169.638,26.028L169.638,26.028z M169.638,35.358v4.084
	c-0.354,0.035-0.652,0.07-0.934,0.123c-0.723,0.123-1.305,0.316-1.729,0.547c-0.422,0.244-0.724,0.547-0.879,0.916
	c-0.179,0.369-0.267,0.773-0.267,1.23c0,0.898,0.334,1.604,1.021,2.096c0.651,0.457,1.588,0.705,2.782,0.724v4.631h-0.459
	c-1.354,0-2.587-0.192-3.729-0.563c-1.125-0.353-2.096-0.859-2.904-1.494c-0.793-0.635-1.426-1.408-1.85-2.291
	c-0.439-0.879-0.668-1.848-0.668-2.887c0-1.021,0.191-1.972,0.598-2.834c0.389-0.882,1.039-1.638,1.92-2.271
	c0.896-0.636,2.076-1.146,3.521-1.517C167.103,35.588,168.282,35.431,169.638,35.358L169.638,35.358z M101.377,49.709v-4.631
	c0.054,0,0.089,0,0.142,0c2.433,0,3.646-1.146,3.646-3.505v-2.2h-2.022c-0.648,0-1.25,0.021-1.762,0.069v-4.084
	c0.564-0.035,1.146-0.053,1.762-0.053h1.989v-0.301c0-1.604-0.403-2.711-1.18-3.309c-0.601-0.441-1.462-0.723-2.571-0.828v-4.84
	c1.161,0.019,2.271,0.177,3.327,0.476c1.162,0.334,2.187,0.88,3.063,1.672c0.896,0.792,1.619,1.849,2.147,3.168
	c0.546,1.304,0.81,2.958,0.81,4.931v5.267c0,1.213-0.211,2.321-0.633,3.31c-0.423,1.004-1.021,1.864-1.777,2.588
	c-0.774,0.725-1.689,1.285-2.746,1.672c-1.059,0.406-2.221,0.602-3.484,0.602L101.377,49.709L101.377,49.709z M132.047,33.828
	c-0.388-0.651-1.108-1.214-2.165-1.688c-1.037-0.459-2.376-0.688-4.031-0.688c-0.811,0-1.604,0.158-2.356,0.457
	c-0.774,0.318-1.443,0.74-2.009,1.304c-0.563,0.545-1.004,1.198-1.354,1.918c-0.334,0.738-0.512,1.531-0.512,2.377
	c0,2.097,0.582,3.785,1.709,5.07c1.127,1.284,2.657,1.938,4.612,1.938c1.638,0,2.955-0.229,3.941-0.67
	c0.986-0.439,1.689-0.916,2.076-1.462h0.213v2.604c0,1.392-0.615,2.535-1.831,3.416c-1.231,0.896-2.888,1.339-4.946,1.339
	c-1.584,0-3.082-0.283-4.49-0.863c-1.426-0.582-2.657-1.373-3.713-2.394c-1.059-1.022-1.901-2.2-2.556-3.594
	c-0.633-1.393-0.95-2.904-0.95-4.543s0.281-3.188,0.828-4.666c0.545-1.461,1.355-2.746,2.411-3.855
	c1.073-1.091,2.358-1.972,3.892-2.623c1.531-0.652,3.259-0.986,5.213-0.986c0.896,0,1.74,0.141,2.5,0.387
	c0.772,0.265,1.427,0.616,1.972,1.057c0.547,0.458,0.985,0.985,1.304,1.567c0.299,0.598,0.459,1.23,0.459,1.918v2.676h-0.214
	L132.047,33.828L132.047,33.828z M156.01,39.073c0,7.166-3.347,10.759-10.019,10.759c-1.408,0-2.729-0.229-3.961-0.688
	c-1.232-0.438-2.289-1.109-3.205-2.008c-0.896-0.896-1.619-1.973-2.131-3.238c-0.527-1.285-0.791-2.766-0.791-4.438V26.45h1.055
	c1.641,0,2.837,0.335,3.594,1.004c0.74,0.686,1.127,1.708,1.127,3.063v8.4c0,2.076,0.439,3.59,1.32,4.506
	c0.896,0.916,1.988,1.355,3.291,1.355c1.197,0,2.148-0.404,2.889-1.271c0.74-0.862,1.092-2.271,1.092-4.228V26.452h1.021
	c1.674,0,2.869,0.335,3.609,1.004c0.738,0.686,1.107,1.708,1.107,3.063L156.01,39.073L156.01,39.073z M90.78,23.899
	c-0.458-0.141-0.951-0.264-1.461-0.352c-0.528-0.106-1.146-0.159-1.851-0.159c-0.598,0-1.144,0.053-1.636,0.176
	c-0.493,0.107-0.916,0.318-1.268,0.616c-0.353,0.3-0.635,0.687-0.846,1.18c-0.211,0.493-0.316,1.126-0.316,1.885v2.042h6.531v1.565
	c0,0.512-0.123,0.969-0.369,1.356c-0.247,0.405-0.563,0.739-0.951,1.021c-0.405,0.281-0.828,0.494-1.321,0.635
	c-0.475,0.141-0.951,0.211-1.444,0.211h-2.446v15.248h-2.289c-0.915,0-1.707-0.318-2.395-0.951
	c-0.704-0.633-1.039-1.443-1.039-2.447V26.787c0-0.792,0.142-1.673,0.44-2.659c0.299-0.969,0.792-1.884,1.497-2.729
	c0.704-0.845,1.637-1.567,2.765-2.148c1.127-0.581,2.535-0.862,4.19-0.862c1.25,0,2.288,0.316,3.116,0.95
	c0.845,0.634,1.25,1.515,1.25,2.658v1.902H90.78L90.78,23.899z M101.377,26.028v4.842c-0.368-0.035-0.757-0.053-1.161-0.053
	c-1.021,0-1.938,0.07-2.746,0.248c-0.811,0.176-1.496,0.387-2.096,0.649c-0.6,0.282-1.092,0.563-1.496,0.882
	c-0.423,0.299-0.723,0.58-0.916,0.844H92.75v-1.83c0-0.617,0.142-1.25,0.44-1.92c0.3-0.669,0.774-1.269,1.443-1.832
	c0.668-0.545,1.53-0.985,2.588-1.338c1.059-0.334,2.344-0.51,3.838-0.51C101.167,26.012,101.274,26.028,101.377,26.028
	L101.377,26.028z M101.377,35.358v4.084c-0.334,0.035-0.649,0.07-0.933,0.123c-0.725,0.123-1.305,0.316-1.728,0.547
	c-0.422,0.244-0.723,0.547-0.881,0.916c-0.176,0.369-0.265,0.773-0.265,1.23c0,0.898,0.353,1.604,1.021,2.096
	c0.651,0.457,1.586,0.705,2.78,0.724v4.631h-0.438c-1.371,0-2.604-0.192-3.73-0.563c-1.146-0.353-2.111-0.859-2.904-1.494
	c-0.81-0.635-1.426-1.408-1.848-2.291c-0.439-0.879-0.669-1.848-0.669-2.887c0-1.021,0.211-1.972,0.599-2.834
	c0.369-0.882,1.021-1.638,1.918-2.271c0.883-0.636,2.061-1.146,3.504-1.517C98.843,35.588,100.022,35.431,101.377,35.358z"/>
</svg>
